#!OML:ASF F:\VICON\USERDATA\INSTALL\rory3\rory3.ASF
:FULLY-SPECIFIED
:DEGREES
47
root 1.63065 17.9626 -17.7329 -4.4136 1.98951 -1.79901
lowerback 15.2978 -1.0127 -1.35924
upperback -0.663768 -1.30411 3.09897
thorax -9.22761 -0.474459 4.42605
lowerneck -11.8281 -0.901874 -2.6287
upperneck 24.331 -0.369095 -1.27147
head 9.64651 -0.556214 -0.038956
rclavicle 1.73937e-015 -3.49861e-014
rhumerus -37.6082 -12.5352 -75.9438
rradius 25.7959
rwrist 5.68904
rhand -13.2202 10.2836
rfingers 7.12502
rthumb 12.8809 -19.299
lclavicle 1.73937e-015 -3.49861e-014
lhumerus -41.0037 5.71267 86.6397
lradius 37.0769
lwrist 5.78164
lhand -12.9702 50.2919
lfingers 7.12502
lthumb 13.122 79.8591
rfemur -15.3104 5.35836 26.6556
rtibia 25.9289
rfoot -4.2508 -8.02503
rtoes 21.0907
lfemur 4.06936 -4.01836 -20.1704
ltibia 45.8636
lfoot 26.4071 -7.66661
ltoes -6.90949
48
root 1.60865 17.9718 -17.5754 -4.56724 2.23481 -2.40192
lowerback 15.3215 -1.09758 -0.823436
upperback -0.548042 -1.30529 3.26755
thorax -9.12223 -0.499661 4.30039
lowerneck -12.2239 -0.836032 -2.70721
upperneck 24.379 -0.27324 -1.14663
head 9.73887 -0.506349 0.0272251
rclavicle 1.56916e-014 -7.95139e-015
rhumerus -37.3892 -12.3979 -76.0048
rradius 25.8406
rwrist 5.87863
rhand -12.9907 10.5013
rfingers 7.12502
rthumb 13.1022 -19.0672
lclavicle 1.56916e-014 -7.95139e-015
lhumerus -41.0435 5.58594 86.7878
lradius 36.7627
lwrist 5.51711
lhand -13.0851 50.269
lfingers 7.12502
lthumb 13.0112 79.8432
rfemur -14.4761 5.70587 27.4949
rtibia 25.7222
rfoot -4.81518 -8.9882
rtoes 21.0366
lfemur 2.4728 -4.0926 -19.2485
ltibia 48.4324
lfoot 28.3311 -8.01315
ltoes -4.13784
49
root 1.59621 17.9754 -17.4321 -4.71195 1.89784 -2.58176
lowerback 15.4353 -0.921059 -0.607125
upperback -0.493047 -1.0328 3.24427
thorax -9.15221 -0.379373 4.09184
lowerneck -12.2803 -0.946309 -2.76152
upperneck 24.4915 -0.45894 -0.962153
head 9.79151 -0.57792 0.0779191
rclavicle -7.98866e-015 1.82882e-014
rhumerus -37.38 -12.3189 -76.1636
rradius 26.0224
rwrist 5.98645
rhand -12.9531 10.5783
rfingers 7.12502
rthumb 13.1384 -18.9878
lclavicle -7.98866e-015 1.82882e-014
lhumerus -41.0111 5.41243 86.7639
lradius 36.3659
lwrist 4.70889
lhand -12.2119 51.0196
lfingers 7.12502
lthumb 13.8528 80.5382
rfemur -13.6439 5.90588 27.8837
rtibia 25.3781
rfoot -4.9727 -8.86788
rtoes 20.7926
lfemur 0.8935 -3.61362 -18.9073
ltibia 50.9825
lfoot 28.7342 -8.49371
ltoes -3.30004
50
root 1.57372 17.9841 -17.2663 -4.69334 2.46863 -2.92223
lowerback 15.8036 -1.07967 -0.258211
upperback -0.897336 -1.16411 3.24146
thorax -9.80464 -0.443601 3.94842
lowerneck -12.0978 -1.0798 -2.7411
upperneck 24.9118 -0.688556 -0.827464
head 9.90892 -0.671601 0.0933781
rclavicle -1.86174e-014 -1.59028e-015
rhumerus -37.9784 -11.9143 -76.2798
rradius 26.0622
rwrist 5.84203
rhand -13.1322 10.972
rfingers 7.12502
rthumb 12.9657 -18.6052
lclavicle -1.86174e-014 -1.59028e-015
lhumerus -41.601 5.03647 86.707
lradius 35.7793
lwrist 4.18483
lhand -11.9982 49.4464
lfingers 7.12502
lthumb 14.0587 78.9509
rfemur -12.876 5.86512 28.4043
rtibia 25.0675
rfoot -5.4231 -9.39714
rtoes 20.8912
lfemur -0.900015 -3.82348 -18.2887
ltibia 53.4965
lfoot 29.391 -8.8326
ltoes -3.56964
51
root 1.55547 17.9836 -17.1173 -5.05192 2.06041 -3.59743
lowerback 15.7702 -0.84083 0.336212
upperback -0.416865 -0.734913 3.37093
thorax -9.29184 -0.275739 3.63107
lowerneck -12.8843 -1.0823 -2.48642
upperneck 24.5753 -0.751078 -0.728002
head 9.93783 -0.66232 0.0745893
rclavicle 5.11871e-015 1.98785e-014
rhumerus -37.2315 -11.9838 -76.5472
rradius 26.133
rwrist 5.61559
rhand -13.0577 10.8567
rfingers 7.12502
rthumb 13.0375 -18.7158
lclavicle 5.11871e-015 1.98785e-014
lhumerus -40.9238 4.28285 87.0731
lradius 35.5435
lwrist 3.86389
lhand -11.6374 51.4233
lfingers 7.12502
lthumb 14.4064 80.9033
rfemur -11.8142 5.96252 29.3893
rtibia 24.8185
rfoot -5.85428 -9.265
rtoes 21.1265
lfemur -2.19044 -3.19534 -17.2893
ltibia 55.9376
lfoot 27.8251 -8.83643
ltoes -0.126363
52
root 1.53974 17.9806 -16.9673 -5.39725 2.28171 -4.19113
lowerback 16.1907 -0.920379 0.948706
upperback -0.6509 -0.697874 3.44279
thorax -9.79877 -0.278274 3.37288
lowerneck -11.9244 -1.2064 -2.49855
upperneck 24.4867 -0.980513 -0.632788
head 9.72452 -0.756919 0.0881018
rclavicle -9.8709e-015 2.90226e-014
rhumerus -37.8184 -11.4956 -76.6783
rradius 26.4523
rwrist 5.40569
rhand -13.0658 10.4038
rfingers 7.12502
rthumb 13.0297 -19.1693
lclavicle -9.8709e-015 2.90226e-014
lhumerus -41.6748 3.8737 87.1182
lradius 35.4787
lwrist 3.4692
lhand -11.4349 50.9326
lfingers 7.12502
lthumb 14.6015 80.3986
rfemur -10.7647 5.75604 30.2157
rtibia 24.5375
rfoot -6.33374 -9.39579
rtoes 21.3945
lfemur -3.57389 -3.18346 -16.4709
ltibia 58.3211
lfoot 25.8524 -8.49157
ltoes -1.62139
53
root 1.52862 17.9778 -16.8225 -5.62875 2.15803 -4.56644
lowerback 15.8676 -0.853459 1.24594
upperback -0.277558 -0.561366 3.60032
thorax -9.21263 -0.230715 3.31997
lowerneck -11.9486 -1.38099 -2.71011
upperneck 24.1751 -1.19113 -0.588128
head 9.6232 -0.866008 0.115596
rclavicle 9.91439e-015 2.5842e-014
rhumerus -37.1334 -10.6652 -77.2577
rradius 26.7482
rwrist 5.28875
rhand -13.9061 8.56464
rfingers 7.12502
rthumb 12.2197 -21.0584
lclavicle 9.91439e-015 2.5842e-014
lhumerus -40.939 4.00907 87.2484
lradius 34.7462
lwrist 3.04031
lhand -11.2489 52.1611
lfingers 7.12502
lthumb 14.7807 81.614
rfemur -9.84035 5.54733 30.7841
rtibia 24.2244
rfoot -6.39522 -9.01261
rtoes 20.2124
lfemur -4.94577 -2.80943 -15.9484
ltibia 60.6057
lfoot 23.2258 -8.20766
ltoes -2.78761
54
root 1.51894 17.9778 -16.6721 -5.80062 2.44444 -4.81494
lowerback 16.2314 -1.03234 1.48884
upperback -0.681492 -0.716154 3.67732
thorax -9.86036 -0.306759 3.32867
lowerneck -10.8496 -1.36024 -2.96302
upperneck 24.082 -1.16342 -0.528882
head 9.38416 -0.868217 0.189928
rclavicle -2.52216e-014 5.12864e-014
rhumerus -37.801 -9.73641 -77.4187
rradius 26.9615
rwrist 5.03348
rhand -14.1995 8.32904
rfingers 7.12502
rthumb 11.9367 -21.3106
lclavicle -2.52216e-014 5.12864e-014
lhumerus -41.8257 4.2207 87.1427
lradius 34.4414
lwrist 2.80334
lhand -11.0867 52.2603
lfingers 7.12502
lthumb 14.9369 81.7017
rfemur -9.00166 5.08692 31.1463
rtibia 23.965
rfoot -6.608 -8.69297
rtoes 18.9179
lfemur -6.36195 -2.7352 -15.5898
ltibia 62.6899
lfoot 20.4176 -7.73722
ltoes -4.95295
55
root 1.50486 17.9733 -16.5305 -5.92236 2.27853 -5.25785
lowerback 16.0443 -0.854898 1.93602
upperback 0.0641086 -0.425389 3.76069
thorax -8.94993 -0.195373 3.06385
lowerneck -13.2853 -1.49905 -2.8246
upperneck 24.6161 -1.29469 -0.521826
head 10.0399 -0.921005 0.133987
rclavicle -2.52457e-014 -2.10712e-014
rhumerus -36.0908 -10.3396 -77.5653
rradius 26.7513
rwrist 4.88029
rhand -14.166 8.87119
rfingers 7.12502
rthumb 11.9691 -20.7666
lclavicle -2.52457e-014 -2.10712e-014
lhumerus -40.2171 4.04873 87.2855
lradius 34.0519
lwrist 2.33076
lhand -10.9961 51.9136
lfingers 7.12502
lthumb 15.0243 81.3485
rfemur -8.09601 4.85527 31.7604
rtibia 23.4207
rfoot -6.85642 -8.36946
rtoes 18.439
lfemur -7.84594 -2.22992 -14.9417
ltibia 64.529
lfoot 18.0198 -7.23321
ltoes -7.20585
